<?xml version="1.0" standalone="no"?>
<!DOCTYPE svg PUBLIC "-//W3C//DTD SVG 20010904//EN"
 "http://www.w3.org/TR/2001/REC-SVG-20010904/DTD/svg10.dtd">
<svg version="1.0" xmlns="http://www.w3.org/2000/svg"
 width="512.000000pt" height="512.000000pt" viewBox="0 0 512.000000 512.000000"
 preserveAspectRatio="xMidYMid meet">
<metadata>
Created by potrace 1.11, written by Peter Selinger 2001-2013
</metadata>
<g transform="translate(0.000000,512.000000) scale(0.100000,-0.100000)"
fill="#000000" stroke="none">
<path d="M2379 5116 c-2 -2 -40 -6 -83 -10 -44 -4 -82 -8 -85 -10 -3 -2 -31
-7 -61 -11 -30 -3 -75 -11 -100 -17 -25 -5 -56 -12 -70 -14 -57 -11 -311 -89
-335 -103 -5 -3 -15 -6 -21 -7 -24 -4 -245 -111 -334 -162 -399 -229 -746
-577 -953 -954 -71 -129 -84 -155 -126 -250 -66 -153 -139 -382 -157 -495 -5
-26 -9 -50 -9 -53 -28 -111 -40 -249 -39 -480 0 -183 3 -241 19 -345 3 -16 7
-43 9 -60 8 -55 45 -219 66 -290 11 -38 22 -77 24 -85 7 -27 64 -174 92 -240
91 -210 257 -473 402 -638 19 -22 19 -22 -5 -90 -13 -37 -26 -74 -30 -82 -3
-8 -7 -17 -8 -20 -1 -3 -4 -12 -7 -20 -87 -227 -113 -310 -101 -315 8 -2 11
-9 8 -15 -3 -5 -3 -10 2 -11 7 -1 33 -4 83 -13 15 -2 95 -30 135 -46 38 -16
460 -171 475 -175 8 -1 40 -13 70 -25 53 -21 138 -52 191 -69 25 -8 26 -6 58
83 17 50 35 97 40 105 7 10 26 6 97 -22 160 -62 314 -107 454 -131 195 -35
255 -40 475 -40 239 -1 338 8 545 52 289 62 574 179 832 342 475 302 829 740
1030 1275 16 44 31 88 33 98 2 9 7 22 10 27 3 5 8 18 10 27 2 10 11 46 20 80
20 78 26 102 30 130 2 11 5 29 9 40 8 28 20 113 33 228 10 91 10 408 1 505 -9
85 -22 172 -37 245 -6 28 -13 61 -15 75 -11 56 -50 190 -78 270 -189 534 -523
966 -990 1284 -54 36 -101 66 -105 66 -3 0 -14 6 -22 14 -20 18 -259 138 -331
166 -48 19 -255 92 -255 90 0 -1 -7 1 -15 4 -27 9 -186 46 -225 52 -21 3 -47
8 -59 10 -11 2 -41 7 -66 10 -25 3 -56 8 -70 10 -28 6 -456 15 -461 10z"/>
</g>
</svg>
